<?xml version="1.0" encoding="UTF-8"?>
<mxfile host="app.diagrams.net" agent="Mozilla/5.0 (Macintosh; Intel Mac OS X 10_15_7) AppleWebKit/537.36 (KHTML, like Gecko) Chrome/140.0.0.0 Safari/537.36" version="28.2.3">
  <diagram id="zsP8EnEX3o-jkApchkRU" name="PropDevelopment - Доработанная диаграмма контейнеров с Умным домом">
    <mxGraphModel dx="1737" dy="1000" grid="1" gridSize="10" guides="1" tooltips="1" connect="1" arrows="1" fold="1" page="1" pageScale="1" pageWidth="827" pageHeight="1169" math="0" shadow="0">
      <root>
        <mxCell id="0" />
        <mxCell id="1" parent="0" />
        <mxCell id="quCamd7nlm0nYq9ba5P_-1" value="PropDevelopment&#xa;[Software System]" style="rounded=1;fontSize=16;whiteSpace=wrap;html=1;dashed=1;arcSize=20;fillColor=none;strokeColor=#666666;fontColor=#333333;fontStyle=1" vertex="1" parent="1">
          <mxGeometry x="820" y="1130" width="1800" height="930" as="geometry" />
        </mxCell>
        <mxCell id="quCamd7nlm0nYq9ba5P_-2" value="Клиент&#xa;[Person]" style="html=1;fontSize=11;dashed=0;whiteSpace=wrap;fillColor=#083F75;strokeColor=#06315C;fontColor=#ffffff;shape=mxgraph.c4.person2;align=center;points=[[0.5,0,0],[1,0.5,0],[1,0.75,0],[0.75,1,0],[0.5,1,0],[0.25,1,0],[0,0.75,0],[0,0.5,0]];resizable=0;" vertex="1" parent="1">
          <mxGeometry x="900" y="1190" width="120" height="80" as="geometry" />
        </mxCell>
        <mxCell id="quCamd7nlm0nYq9ba5P_-3" value="Собственник&#xa;[Person]" style="html=1;fontSize=11;dashed=0;whiteSpace=wrap;fillColor=#083F75;strokeColor=#06315C;fontColor=#ffffff;shape=mxgraph.c4.person2;align=center;points=[[0.5,0,0],[1,0.5,0],[1,0.75,0],[0.75,1,0],[0.5,1,0],[0.25,1,0],[0,0.75,0],[0,0.5,0]];resizable=0;" vertex="1" parent="1">
          <mxGeometry x="900" y="1630" width="120" height="80" as="geometry" />
        </mxCell>
        <mxCell id="quCamd7nlm0nYq9ba5P_-4" value="Витрина продаж&#xa;[Container: JavaScript, React]" style="rounded=1;whiteSpace=wrap;html=1;fontSize=11;labelBackgroundColor=none;fillColor=#23A2D9;fontColor=#ffffff;align=center;arcSize=10;strokeColor=#0E7DAD;resizable=0;points=[[0.25,0,0],[0.5,0,0],[0.75,0,0],[1,0.25,0],[1,0.5,0],[1,0.75,0],[0.75,1,0],[0.5,1,0],[0.25,1,0],[0,0.75,0],[0,0.5,0],[0,0.25,0]];" vertex="1" parent="1">
          <mxGeometry x="1130" y="1190" width="150" height="80" as="geometry" />
        </mxCell>
        <mxCell id="quCamd7nlm0nYq9ba5P_-5" value="client-mart-app&#xa;[Container: Kotlin, SpringBoot]" style="rounded=1;whiteSpace=wrap;html=1;fontSize=11;labelBackgroundColor=none;fillColor=#23A2D9;fontColor=#ffffff;align=center;arcSize=10;strokeColor=#0E7DAD;resizable=0;points=[[0.25,0,0],[0.5,0,0],[0.75,0,0],[1,0.25,0],[1,0.5,0],[1,0.75,0],[0.75,1,0],[0.5,1,0],[0.25,1,0],[0,0.75,0],[0,0.5,0],[0,0.25,0]];" vertex="1" parent="1">
          <mxGeometry x="1130" y="1330" width="150" height="80" as="geometry" />
        </mxCell>
        <mxCell id="quCamd7nlm0nYq9ba5P_-6" value="client-mart-db&#xa;[Container: PostgreSQL]" style="shape=cylinder3;size=15;whiteSpace=wrap;html=1;boundedLbl=1;rounded=0;labelBackgroundColor=none;fillColor=#23A2D9;fontSize=12;fontColor=#ffffff;align=center;strokeColor=#0E7DAD;resizable=0;points=[[0.5,0,0],[1,0.25,0],[1,0.5,0],[1,0.75,0],[0.5,1,0],[0,0.75,0],[0,0.5,0],[0,0.25,0]];" vertex="1" parent="1">
          <mxGeometry x="1130" y="1490" width="150" height="80" as="geometry" />
        </mxCell>
        <mxCell id="quCamd7nlm0nYq9ba5P_-7" value="tenant-core-app&#xa;[Container: Kotlin, SpringBoot]" style="rounded=1;whiteSpace=wrap;html=1;fontSize=11;labelBackgroundColor=none;fillColor=#23A2D9;fontColor=#ffffff;align=center;arcSize=10;strokeColor=#0E7DAD;resizable=0;points=[[0.25,0,0],[0.5,0,0],[0.75,0,0],[1,0.25,0],[1,0.5,0],[1,0.75,0],[0.75,1,0],[0.5,1,0],[0.25,1,0],[0,0.75,0],[0,0.5,0],[0,0.25,0]];" vertex="1" parent="1">
          <mxGeometry x="1340" y="1630" width="150" height="80" as="geometry" />
        </mxCell>
        <mxCell id="quCamd7nlm0nYq9ba5P_-8" value="tenant-core-db&#xa;[Container: PostgreSQL]" style="shape=cylinder3;size=15;whiteSpace=wrap;html=1;boundedLbl=1;rounded=0;labelBackgroundColor=none;fillColor=#23A2D9;fontSize=12;fontColor=#ffffff;align=center;strokeColor=#0E7DAD;resizable=0;points=[[0.5,0,0],[1,0.25,0],[1,0.5,0],[1,0.75,0],[0.5,1,0],[0,0.75,0],[0,0.5,0],[0,0.25,0]];" vertex="1" parent="1">
          <mxGeometry x="1340" y="1754" width="150" height="80" as="geometry" />
        </mxCell>
        <mxCell id="quCamd7nlm0nYq9ba5P_-9" value="CRM&#xa;[Container: Kotlin, Spring Boot]" style="rounded=1;whiteSpace=wrap;html=1;fontSize=11;labelBackgroundColor=none;fillColor=#23A2D9;fontColor=#ffffff;align=center;arcSize=10;strokeColor=#0E7DAD;resizable=0;points=[[0.25,0,0],[0.5,0,0],[0.75,0,0],[1,0.25,0],[1,0.5,0],[1,0.75,0],[0.75,1,0],[0.5,1,0],[0.25,1,0],[0,0.75,0],[0,0.5,0],[0,0.25,0]];" vertex="1" parent="1">
          <mxGeometry x="1540" y="1630" width="150" height="80" as="geometry" />
        </mxCell>
        <mxCell id="quCamd7nlm0nYq9ba5P_-10" value="crm-tenant-db&#xa;[Container: PostgreSQL]" style="shape=cylinder3;size=15;whiteSpace=wrap;html=1;boundedLbl=1;rounded=0;labelBackgroundColor=none;fillColor=#23A2D9;fontSize=12;fontColor=#ffffff;align=center;strokeColor=#0E7DAD;resizable=0;points=[[0.5,0,0],[1,0.25,0],[1,0.5,0],[1,0.75,0],[0.5,1,0],[0,0.75,0],[0,0.5,0],[0,0.25,0]];" vertex="1" parent="1">
          <mxGeometry x="1540" y="1750" width="150" height="80" as="geometry" />
        </mxCell>
        <mxCell id="quCamd7nlm0nYq9ba5P_-11" value="Мобильное приложение&#xa;[Container: Mobile app]" style="rounded=1;whiteSpace=wrap;html=1;fontSize=11;labelBackgroundColor=none;fillColor=#23A2D9;fontColor=#ffffff;align=center;arcSize=10;strokeColor=#0E7DAD;resizable=0;points=[[0.25,0,0],[0.5,0,0],[0.75,0,0],[1,0.25,0],[1,0.5,0],[1,0.75,0],[0.75,1,0],[0.5,1,0],[0.25,1,0],[0,0.75,0],[0,0.5,0],[0,0.25,0]];" vertex="1" parent="1">
          <mxGeometry x="1130" y="1630" width="150" height="80" as="geometry" />
        </mxCell>
        <mxCell id="quCamd7nlm0nYq9ba5P_-12" value="Smart Home API Gateway&#xa;[Container: Kong, Nginx]" style="rounded=1;whiteSpace=wrap;html=1;fontSize=11;labelBackgroundColor=none;fillColor=#4CAF50;fontColor=#ffffff;align=center;arcSize=10;strokeColor=#388E3C;resizable=0;points=[[0.25,0,0],[0.5,0,0],[0.75,0,0],[1,0.25,0],[1,0.5,0],[1,0.75,0],[0.75,1,0],[0.5,1,0],[0.25,1,0],[0,0.75,0],[0,0.5,0],[0,0.25,0]];" vertex="1" parent="1">
          <mxGeometry x="1820" y="1840" width="150" height="80" as="geometry" />
        </mxCell>
        <mxCell id="quCamd7nlm0nYq9ba5P_-13" value="Smart Home Service&#xa;[Container: Kotlin, Spring Boot]" style="rounded=1;whiteSpace=wrap;html=1;fontSize=11;labelBackgroundColor=none;fillColor=#4CAF50;fontColor=#ffffff;align=center;arcSize=10;strokeColor=#388E3C;resizable=0;points=[[0.25,0,0],[0.5,0,0],[0.75,0,0],[1,0.25,0],[1,0.5,0],[1,0.75,0],[0.75,1,0],[0.5,1,0],[0.25,1,0],[0,0.75,0],[0,0.5,0],[0,0.25,0]];" vertex="1" parent="1">
          <mxGeometry x="1820" y="1710" width="150" height="80" as="geometry" />
        </mxCell>
        <mxCell id="quCamd7nlm0nYq9ba5P_-14" value="Device Management Service&#xa;[Container: Kotlin, Spring Boot]" style="rounded=1;whiteSpace=wrap;html=1;fontSize=11;labelBackgroundColor=none;fillColor=#4CAF50;fontColor=#ffffff;align=center;arcSize=10;strokeColor=#388E3C;resizable=0;points=[[0.25,0,0],[0.5,0,0],[0.75,0,0],[1,0.25,0],[1,0.5,0],[1,0.75,0],[0.75,1,0],[0.5,1,0],[0.25,1,0],[0,0.75,0],[0,0.5,0],[0,0.25,0]];" vertex="1" parent="1">
          <mxGeometry x="1820" y="1510" width="150" height="80" as="geometry" />
        </mxCell>
        <mxCell id="quCamd7nlm0nYq9ba5P_-15" value="Access Control Service&#xa;[Container: Kotlin, Spring Boot]" style="rounded=1;whiteSpace=wrap;html=1;fontSize=11;labelBackgroundColor=none;fillColor=#4CAF50;fontColor=#ffffff;align=center;arcSize=10;strokeColor=#388E3C;resizable=0;points=[[0.25,0,0],[0.5,0,0],[0.75,0,0],[1,0.25,0],[1,0.5,0],[1,0.75,0],[0.75,1,0],[0.5,1,0],[0.25,1,0],[0,0.75,0],[0,0.5,0],[0,0.25,0]];" vertex="1" parent="1">
          <mxGeometry x="2030" y="1840" width="150" height="80" as="geometry" />
        </mxCell>
        <mxCell id="quCamd7nlm0nYq9ba5P_-16" value="Smart Home Database&#xa;[Container: PostgreSQL]" style="shape=cylinder3;size=15;whiteSpace=wrap;html=1;boundedLbl=1;rounded=0;labelBackgroundColor=none;fillColor=#4CAF50;fontSize=12;fontColor=#ffffff;align=center;strokeColor=#388E3C;resizable=0;points=[[0.5,0,0],[1,0.25,0],[1,0.5,0],[1,0.75,0],[0.5,1,0],[0,0.75,0],[0,0.5,0],[0,0.25,0]];" vertex="1" parent="1">
          <mxGeometry x="1820" y="1370" width="150" height="80" as="geometry" />
        </mxCell>
        <mxCell id="quCamd7nlm0nYq9ba5P_-17" value="Biometric Database&#xa;[Container: PostgreSQL]" style="shape=cylinder3;size=15;whiteSpace=wrap;html=1;boundedLbl=1;rounded=0;labelBackgroundColor=none;fillColor=#4CAF50;fontSize=12;fontColor=#ffffff;align=center;strokeColor=#388E3C;resizable=0;points=[[0.5,0,0],[1,0.25,0],[1,0.5,0],[1,0.75,0],[0.5,1,0],[0,0.75,0],[0,0.5,0],[0,0.25,0]];" vertex="1" parent="1">
          <mxGeometry x="2030" y="1960" width="150" height="80" as="geometry" />
        </mxCell>
        <mxCell id="quCamd7nlm0nYq9ba5P_-18" value="Партнер - Умный дом&#xa;[Software System]" style="rounded=1;whiteSpace=wrap;html=1;labelBackgroundColor=none;fillColor=#8C8496;fontColor=#ffffff;align=center;arcSize=10;strokeColor=#736782;resizable=0;points=[[0.25,0,0],[0.5,0,0],[0.75,0,0],[1,0.25,0],[1,0.5,0],[1,0.75,0],[0.75,1,0],[0.5,1,0],[0.25,1,0],[0,0.75,0],[0,0.5,0],[0,0.25,0]];" vertex="1" parent="1">
          <mxGeometry x="2160" y="1714" width="150" height="80" as="geometry" />
        </mxCell>
        <mxCell id="quCamd7nlm0nYq9ba5P_-19" value="Интеллектуальный домофон&#xa;[External Device]" style="rounded=1;whiteSpace=wrap;html=1;labelBackgroundColor=none;fillColor=#FF6B6B;fontColor=#ffffff;align=center;arcSize=10;strokeColor=#E55555;resizable=0;points=[[0.25,0,0],[0.5,0,0],[0.75,0,0],[1,0.25,0],[1,0.5,0],[1,0.75,0],[0.75,1,0],[0.5,1,0],[0.25,1,0],[0,0.75,0],[0,0.5,0],[0,0.25,0]];" vertex="1" parent="1">
          <mxGeometry x="2160" y="1520" width="150" height="80" as="geometry" />
        </mxCell>
        <mxCell id="quCamd7nlm0nYq9ba5P_-20" value="Интеллектуальный шлагбаум&#xa;[External Device]" style="rounded=1;whiteSpace=wrap;html=1;labelBackgroundColor=none;fillColor=#FF6B6B;fontColor=#ffffff;align=center;arcSize=10;strokeColor=#E55555;resizable=0;points=[[0.25,0,0],[0.5,0,0],[0.75,0,0],[1,0.25,0],[1,0.5,0],[1,0.75,0],[0.75,1,0],[0.5,1,0],[0.25,1,0],[0,0.75,0],[0,0.5,0],[0,0.25,0]];" vertex="1" parent="1">
          <mxGeometry x="2440" y="1714" width="150" height="80" as="geometry" />
        </mxCell>
        <mxCell id="quCamd7nlm0nYq9ba5P_-21" style="edgeStyle=orthogonalEdgeStyle;rounded=0;orthogonalLoop=1;jettySize=auto;html=1;exitX=1;exitY=0.5;exitDx=0;exitDy=0;exitPerimeter=0;entryX=0;entryY=0.5;entryDx=0;entryDy=0;entryPerimeter=0;" edge="1" parent="1" source="quCamd7nlm0nYq9ba5P_-2" target="quCamd7nlm0nYq9ba5P_-4">
          <mxGeometry relative="1" as="geometry" />
        </mxCell>
        <mxCell id="quCamd7nlm0nYq9ba5P_-22" value="[HTTPS]" style="edgeLabel;html=1;align=center;verticalAlign=middle;resizable=0;points=[];" connectable="0" vertex="1" parent="quCamd7nlm0nYq9ba5P_-21">
          <mxGeometry x="-0.1" y="-1" relative="1" as="geometry">
            <mxPoint as="offset" />
          </mxGeometry>
        </mxCell>
        <mxCell id="quCamd7nlm0nYq9ba5P_-23" style="edgeStyle=orthogonalEdgeStyle;rounded=0;orthogonalLoop=1;jettySize=auto;html=1;exitX=1;exitY=0.5;exitDx=0;exitDy=0;exitPerimeter=0;entryX=0;entryY=0.5;entryDx=0;entryDy=0;exitPerimeter=0;" edge="1" parent="1" source="quCamd7nlm0nYq9ba5P_-3" target="quCamd7nlm0nYq9ba5P_-11">
          <mxGeometry relative="1" as="geometry" />
        </mxCell>
        <mxCell id="quCamd7nlm0nYq9ba5P_-24" value="[HTTPS]" style="edgeLabel;html=1;align=center;verticalAlign=middle;resizable=0;points=[];" connectable="0" vertex="1" parent="quCamd7nlm0nYq9ba5P_-23">
          <mxGeometry x="-0.1" y="-1" relative="1" as="geometry">
            <mxPoint as="offset" />
          </mxGeometry>
        </mxCell>
        <mxCell id="quCamd7nlm0nYq9ba5P_-25" style="edgeStyle=orthogonalEdgeStyle;rounded=0;orthogonalLoop=1;jettySize=auto;html=1;exitX=0.5;exitY=1;exitDx=0;exitDy=0;exitPerimeter=0;entryX=0;entryY=0.5;entryDx=0;entryDy=0;exitPerimeter=0;entryPerimeter=0;" edge="1" parent="1" source="quCamd7nlm0nYq9ba5P_-3" target="quCamd7nlm0nYq9ba5P_-12">
          <mxGeometry relative="1" as="geometry">
            <Array as="points">
              <mxPoint x="960" y="1870" />
              <mxPoint x="1790" y="1870" />
              <mxPoint x="1790" y="1880" />
            </Array>
          </mxGeometry>
        </mxCell>
        <mxCell id="quCamd7nlm0nYq9ba5P_-26" value="Управляет умным домом&#xa;[HTTPS]" style="edgeLabel;html=1;align=center;verticalAlign=middle;resizable=0;points=[];" connectable="0" vertex="1" parent="quCamd7nlm0nYq9ba5P_-25">
          <mxGeometry x="-0.1" y="-1" relative="1" as="geometry">
            <mxPoint as="offset" />
          </mxGeometry>
        </mxCell>
        <mxCell id="quCamd7nlm0nYq9ba5P_-56" value="Text" style="edgeLabel;html=1;align=center;verticalAlign=middle;resizable=0;points=[];" vertex="1" connectable="0" parent="quCamd7nlm0nYq9ba5P_-25">
          <mxGeometry x="0.175" y="-5" relative="1" as="geometry">
            <mxPoint x="-1" as="offset" />
          </mxGeometry>
        </mxCell>
        <mxCell id="quCamd7nlm0nYq9ba5P_-27" style="edgeStyle=orthogonalEdgeStyle;rounded=0;orthogonalLoop=1;jettySize=auto;html=1;exitX=0.5;exitY=1;exitDx=0;exitDy=0;exitPerimeter=0;entryX=0.5;entryY=0;entryDx=0;entryDy=0;entryPerimeter=0;" edge="1" parent="1" source="quCamd7nlm0nYq9ba5P_-4" target="quCamd7nlm0nYq9ba5P_-5">
          <mxGeometry relative="1" as="geometry" />
        </mxCell>
        <mxCell id="quCamd7nlm0nYq9ba5P_-28" value="[REST]" style="edgeLabel;html=1;align=center;verticalAlign=middle;resizable=0;points=[];" connectable="0" vertex="1" parent="quCamd7nlm0nYq9ba5P_-27">
          <mxGeometry x="-0.1" y="-1" relative="1" as="geometry">
            <mxPoint as="offset" />
          </mxGeometry>
        </mxCell>
        <mxCell id="quCamd7nlm0nYq9ba5P_-29" style="edgeStyle=orthogonalEdgeStyle;rounded=0;orthogonalLoop=1;jettySize=auto;html=1;exitX=0.5;exitY=1;exitDx=0;exitDy=0;exitPerimeter=0;entryX=0.5;entryY=0;entryDx=0;entryDy=0;entryPerimeter=0;" edge="1" parent="1" source="quCamd7nlm0nYq9ba5P_-5" target="quCamd7nlm0nYq9ba5P_-6">
          <mxGeometry relative="1" as="geometry" />
        </mxCell>
        <mxCell id="quCamd7nlm0nYq9ba5P_-30" value="[JDBC]" style="edgeLabel;html=1;align=center;verticalAlign=middle;resizable=0;points=[];" connectable="0" vertex="1" parent="quCamd7nlm0nYq9ba5P_-29">
          <mxGeometry x="-0.1" y="-1" relative="1" as="geometry">
            <mxPoint as="offset" />
          </mxGeometry>
        </mxCell>
        <mxCell id="quCamd7nlm0nYq9ba5P_-31" style="edgeStyle=orthogonalEdgeStyle;rounded=0;orthogonalLoop=1;jettySize=auto;html=1;exitX=1;exitY=0.5;exitDx=0;exitDy=0;exitPerimeter=0;entryX=0;entryY=0.5;entryDx=0;entryDy=0;entryPerimeter=0;" edge="1" parent="1" source="quCamd7nlm0nYq9ba5P_-11" target="quCamd7nlm0nYq9ba5P_-7">
          <mxGeometry relative="1" as="geometry" />
        </mxCell>
        <mxCell id="quCamd7nlm0nYq9ba5P_-32" value="[REST]" style="edgeLabel;html=1;align=center;verticalAlign=middle;resizable=0;points=[];" connectable="0" vertex="1" parent="quCamd7nlm0nYq9ba5P_-31">
          <mxGeometry x="-0.1" y="-1" relative="1" as="geometry">
            <mxPoint as="offset" />
          </mxGeometry>
        </mxCell>
        <mxCell id="quCamd7nlm0nYq9ba5P_-33" style="edgeStyle=orthogonalEdgeStyle;rounded=0;orthogonalLoop=1;jettySize=auto;html=1;exitX=0.5;exitY=1;exitDx=0;exitDy=0;exitPerimeter=0;entryX=0.5;entryY=0;entryDx=0;entryDy=0;entryPerimeter=0;" edge="1" parent="1" source="quCamd7nlm0nYq9ba5P_-7" target="quCamd7nlm0nYq9ba5P_-8">
          <mxGeometry relative="1" as="geometry" />
        </mxCell>
        <mxCell id="quCamd7nlm0nYq9ba5P_-34" value="[JDBC]" style="edgeLabel;html=1;align=center;verticalAlign=middle;resizable=0;points=[];" connectable="0" vertex="1" parent="quCamd7nlm0nYq9ba5P_-33">
          <mxGeometry x="-0.1" y="-1" relative="1" as="geometry">
            <mxPoint as="offset" />
          </mxGeometry>
        </mxCell>
        <mxCell id="quCamd7nlm0nYq9ba5P_-35" style="edgeStyle=orthogonalEdgeStyle;rounded=0;orthogonalLoop=1;jettySize=auto;html=1;exitX=1;exitY=0.5;exitDx=0;exitDy=0;exitPerimeter=0;entryX=0;entryY=0.5;entryDx=0;entryDy=0;entryPerimeter=0;" edge="1" parent="1" source="quCamd7nlm0nYq9ba5P_-7" target="quCamd7nlm0nYq9ba5P_-9">
          <mxGeometry relative="1" as="geometry" />
        </mxCell>
        <mxCell id="quCamd7nlm0nYq9ba5P_-36" value="[REST]" style="edgeLabel;html=1;align=center;verticalAlign=middle;resizable=0;points=[];" connectable="0" vertex="1" parent="quCamd7nlm0nYq9ba5P_-35">
          <mxGeometry x="-0.1" y="-1" relative="1" as="geometry">
            <mxPoint as="offset" />
          </mxGeometry>
        </mxCell>
        <mxCell id="quCamd7nlm0nYq9ba5P_-37" style="edgeStyle=orthogonalEdgeStyle;rounded=0;orthogonalLoop=1;jettySize=auto;html=1;exitX=0.5;exitY=1;exitDx=0;exitDy=0;exitPerimeter=0;entryX=0.5;entryY=0;entryDx=0;entryDy=0;entryPerimeter=0;" edge="1" parent="1" source="quCamd7nlm0nYq9ba5P_-9" target="quCamd7nlm0nYq9ba5P_-10">
          <mxGeometry relative="1" as="geometry" />
        </mxCell>
        <mxCell id="quCamd7nlm0nYq9ba5P_-38" value="[JDBC]" style="edgeLabel;html=1;align=center;verticalAlign=middle;resizable=0;points=[];" connectable="0" vertex="1" parent="quCamd7nlm0nYq9ba5P_-37">
          <mxGeometry x="-0.1" y="-1" relative="1" as="geometry">
            <mxPoint as="offset" />
          </mxGeometry>
        </mxCell>
        <mxCell id="quCamd7nlm0nYq9ba5P_-39" style="edgeStyle=orthogonalEdgeStyle;rounded=0;orthogonalLoop=1;jettySize=auto;html=1;exitX=0.5;exitY=0;exitDx=0;exitDy=0;exitPerimeter=0;entryX=0.5;entryY=1;entryDx=0;entryDy=0;entryPerimeter=0;" edge="1" parent="1" source="quCamd7nlm0nYq9ba5P_-12" target="quCamd7nlm0nYq9ba5P_-13">
          <mxGeometry relative="1" as="geometry" />
        </mxCell>
        <mxCell id="quCamd7nlm0nYq9ba5P_-40" value="[HTTP/REST]" style="edgeLabel;html=1;align=center;verticalAlign=middle;resizable=0;points=[];" connectable="0" vertex="1" parent="quCamd7nlm0nYq9ba5P_-39">
          <mxGeometry x="-0.1" y="-1" relative="1" as="geometry">
            <mxPoint as="offset" />
          </mxGeometry>
        </mxCell>
        <mxCell id="quCamd7nlm0nYq9ba5P_-41" style="edgeStyle=orthogonalEdgeStyle;rounded=0;orthogonalLoop=1;jettySize=auto;html=1;exitX=0.5;exitY=0;exitDx=0;exitDy=0;exitPerimeter=0;entryX=0.5;entryY=1;entryDx=0;entryDy=0;entryPerimeter=0;" edge="1" parent="1" source="quCamd7nlm0nYq9ba5P_-13" target="quCamd7nlm0nYq9ba5P_-14">
          <mxGeometry relative="1" as="geometry" />
        </mxCell>
        <mxCell id="quCamd7nlm0nYq9ba5P_-42" value="[HTTP/REST]" style="edgeLabel;html=1;align=center;verticalAlign=middle;resizable=0;points=[];" connectable="0" vertex="1" parent="quCamd7nlm0nYq9ba5P_-41">
          <mxGeometry x="-0.1" y="-1" relative="1" as="geometry">
            <mxPoint as="offset" />
          </mxGeometry>
        </mxCell>
        <mxCell id="quCamd7nlm0nYq9ba5P_-43" style="edgeStyle=orthogonalEdgeStyle;rounded=0;orthogonalLoop=1;jettySize=auto;html=1;exitX=1;exitY=0.75;exitDx=0;exitDy=0;exitPerimeter=0;entryX=0;entryY=0.5;entryDx=0;entryDy=0;entryPerimeter=0;" edge="1" parent="1" source="quCamd7nlm0nYq9ba5P_-13" target="quCamd7nlm0nYq9ba5P_-15">
          <mxGeometry relative="1" as="geometry" />
        </mxCell>
        <mxCell id="quCamd7nlm0nYq9ba5P_-44" value="[HTTP/REST]" style="edgeLabel;html=1;align=center;verticalAlign=middle;resizable=0;points=[];" connectable="0" vertex="1" parent="quCamd7nlm0nYq9ba5P_-43">
          <mxGeometry x="-0.1" y="-1" relative="1" as="geometry">
            <mxPoint as="offset" />
          </mxGeometry>
        </mxCell>
        <mxCell id="quCamd7nlm0nYq9ba5P_-45" style="edgeStyle=orthogonalEdgeStyle;rounded=0;orthogonalLoop=1;jettySize=auto;html=1;exitX=0.5;exitY=0;exitDx=0;exitDy=0;exitPerimeter=0;entryX=0.5;entryY=1;entryDx=0;entryDy=0;entryPerimeter=0;" edge="1" parent="1" source="quCamd7nlm0nYq9ba5P_-14" target="quCamd7nlm0nYq9ba5P_-16">
          <mxGeometry relative="1" as="geometry" />
        </mxCell>
        <mxCell id="quCamd7nlm0nYq9ba5P_-46" value="[JDBC]" style="edgeLabel;html=1;align=center;verticalAlign=middle;resizable=0;points=[];" connectable="0" vertex="1" parent="quCamd7nlm0nYq9ba5P_-45">
          <mxGeometry x="-0.1" y="-1" relative="1" as="geometry">
            <mxPoint as="offset" />
          </mxGeometry>
        </mxCell>
        <mxCell id="quCamd7nlm0nYq9ba5P_-47" style="edgeStyle=orthogonalEdgeStyle;rounded=0;orthogonalLoop=1;jettySize=auto;html=1;exitX=0.5;exitY=1;exitDx=0;exitDy=0;exitPerimeter=0;entryX=0.5;entryY=0;entryDx=0;entryDy=0;entryPerimeter=0;" edge="1" parent="1" source="quCamd7nlm0nYq9ba5P_-15" target="quCamd7nlm0nYq9ba5P_-17">
          <mxGeometry relative="1" as="geometry" />
        </mxCell>
        <mxCell id="quCamd7nlm0nYq9ba5P_-48" value="[JDBC]" style="edgeLabel;html=1;align=center;verticalAlign=middle;resizable=0;points=[];" connectable="0" vertex="1" parent="quCamd7nlm0nYq9ba5P_-47">
          <mxGeometry x="-0.1" y="-1" relative="1" as="geometry">
            <mxPoint as="offset" />
          </mxGeometry>
        </mxCell>
        <mxCell id="quCamd7nlm0nYq9ba5P_-49" style="edgeStyle=orthogonalEdgeStyle;rounded=0;orthogonalLoop=1;jettySize=auto;html=1;exitX=1;exitY=0.5;exitDx=0;exitDy=0;exitPerimeter=0;entryX=0;entryY=0.5;entryDx=0;entryDy=0;entryPerimeter=0;" edge="1" parent="1" source="quCamd7nlm0nYq9ba5P_-13" target="quCamd7nlm0nYq9ba5P_-18">
          <mxGeometry relative="1" as="geometry" />
        </mxCell>
        <mxCell id="quCamd7nlm0nYq9ba5P_-50" value="[HTTPS/REST]" style="edgeLabel;html=1;align=center;verticalAlign=middle;resizable=0;points=[];" connectable="0" vertex="1" parent="quCamd7nlm0nYq9ba5P_-49">
          <mxGeometry x="-0.1" y="-1" relative="1" as="geometry">
            <mxPoint as="offset" />
          </mxGeometry>
        </mxCell>
        <mxCell id="quCamd7nlm0nYq9ba5P_-51" style="edgeStyle=orthogonalEdgeStyle;rounded=0;orthogonalLoop=1;jettySize=auto;html=1;entryX=0.5;entryY=1;entryDx=0;entryDy=0;entryPerimeter=0;" edge="1" parent="1" target="quCamd7nlm0nYq9ba5P_-19">
          <mxGeometry relative="1" as="geometry">
            <mxPoint x="2235" y="1720" as="sourcePoint" />
          </mxGeometry>
        </mxCell>
        <mxCell id="quCamd7nlm0nYq9ba5P_-52" value="[MQTT/HTTPS]" style="edgeLabel;html=1;align=center;verticalAlign=middle;resizable=0;points=[];" connectable="0" vertex="1" parent="quCamd7nlm0nYq9ba5P_-51">
          <mxGeometry x="-0.1" y="-1" relative="1" as="geometry">
            <mxPoint as="offset" />
          </mxGeometry>
        </mxCell>
        <mxCell id="quCamd7nlm0nYq9ba5P_-53" style="edgeStyle=orthogonalEdgeStyle;rounded=0;orthogonalLoop=1;jettySize=auto;html=1;exitX=1;exitY=0.5;exitDx=0;exitDy=0;exitPerimeter=0;entryX=0;entryY=0.5;entryDx=0;entryDy=0;entryPerimeter=0;" edge="1" parent="1" source="quCamd7nlm0nYq9ba5P_-18" target="quCamd7nlm0nYq9ba5P_-20">
          <mxGeometry relative="1" as="geometry">
            <Array as="points">
              <mxPoint x="2380" y="1754" />
              <mxPoint x="2380" y="1750" />
              <mxPoint x="2410" y="1750" />
              <mxPoint x="2410" y="1754" />
            </Array>
          </mxGeometry>
        </mxCell>
        <mxCell id="quCamd7nlm0nYq9ba5P_-54" value="[MQTT/HTTPS]" style="edgeLabel;html=1;align=center;verticalAlign=middle;resizable=0;points=[];" connectable="0" vertex="1" parent="quCamd7nlm0nYq9ba5P_-53">
          <mxGeometry x="-0.1" y="-1" relative="1" as="geometry">
            <mxPoint as="offset" />
          </mxGeometry>
        </mxCell>
      </root>
    </mxGraphModel>
  </diagram>
</mxfile>
